<svg width="14" height="13" viewBox="0 0 14 13" fill="none" xmlns="http://www.w3.org/2000/svg">
<path fill-rule="evenodd" clip-rule="evenodd" d="M12.9172 7.32414C13.4053 7.25793 13.7815 6.83953 13.7815 6.33327C13.7815 5.78099 13.3338 5.33327 12.7815 5.33327L4.30606 5.33327L7.60936 2.04455L7.70642 1.9326C7.99773 1.54174 7.96664 0.986116 7.61237 0.630338C7.22268 0.238983 6.58952 0.237635 6.19816 0.627326L1.17949 5.62466L1.17689 5.62766C1.14416 5.66053 1.1137 5.69566 1.08577 5.7328L1.08217 5.73696C0.790205 6.12905 0.822646 6.68655 1.17949 7.04188L6.19816 12.0392L6.31053 12.1358C6.70263 12.4254 7.25811 12.392 7.61237 12.0362L7.70896 11.9238C7.9986 11.5317 7.96514 10.9763 7.60936 10.622L4.3079 7.33327L12.7815 7.33327L12.9172 7.32414Z" fill="white"/>
</svg>
