<svg width="24" height="24" viewBox="0 0 24 24" fill="none" xmlns="http://www.w3.org/2000/svg">
<path d="M9 22H15C20 22 22 20 22 15V9C22 4 20 2 15 2H9C4 2 2 4 2 9V15C2 20 4 22 9 22Z" stroke="#246BFD" stroke-width="1.5" stroke-linecap="round" stroke-linejoin="round"/>
<path d="M9.00164 10.9008C8.98861 11.2946 9.05327 11.687 9.19192 12.0558C9.33056 12.4245 9.54049 12.7624 9.8097 13.05C10.0789 13.3377 10.4021 13.5694 10.7609 13.7322C11.1197 13.8949 11.5071 13.9853 11.9008 13.9984C12.2946 14.0114 12.687 13.9467 13.0558 13.8081C13.4245 13.6694 13.7624 13.4595 14.05 13.1903C14.3377 12.9211 14.5694 12.5979 14.7322 12.2391C14.8949 11.8803 14.9853 11.4929 14.9984 11.0992C15.0114 10.7054 14.9467 10.313 14.8081 9.94422C14.6694 9.57546 14.4595 9.23761 14.1903 8.94998C13.9211 8.66235 13.5979 8.43055 13.2391 8.26784C12.8803 8.10512 12.4929 8.01467 12.0992 8.00164C11.7054 7.98861 11.313 8.05327 10.9442 8.19192C10.5755 8.33056 10.2376 8.54049 9.94998 8.8097C9.66235 9.07891 9.43055 9.40214 9.26784 9.76094C9.10512 10.1197 9.01467 10.5071 9.00164 10.9008Z" stroke="#246BFD" stroke-width="1.5" stroke-linecap="round" stroke-linejoin="round"/>
<path d="M17 21.1665C16.5904 19.9825 15.8967 18.9705 15.0067 18.2585C14.1167 17.5465 13.0704 17.1665 12 17.1665C10.9296 17.1665 9.88327 17.5465 8.99328 18.2585C8.10328 18.9705 7.40962 19.9825 7 21.1665" stroke="#246BFD" stroke-width="1.5" stroke-linecap="round" stroke-linejoin="round"/>
</svg>
