<svg width="83" height="30" viewBox="0 0 83 30" fill="none" xmlns="http://www.w3.org/2000/svg">
<path d="M15 0.288675C15.3094 0.110043 15.6906 0.110042 16 0.288675L27.9904 7.21132C28.2998 7.38996 28.4904 7.72008 28.4904 8.07735V21.9226C28.4904 22.2799 28.2998 22.61 27.9904 22.7887L16 29.7113C15.6906 29.89 15.3094 29.89 15 29.7113L3.00962 22.7887C2.70022 22.61 2.50962 22.2799 2.50962 21.9226V8.07735C2.50962 7.72009 2.70022 7.38996 3.00962 7.21132L15 0.288675Z" fill="url(#paint0_radial_288_824)"/>
<path d="M44.46 3.624V12H42.78V6.552L40.536 12H39.264L37.008 6.552V12H35.328V3.624H37.236L39.9 9.852L42.564 3.624H44.46ZM52.301 8.532C52.301 8.772 52.285 8.988 52.253 9.18H47.393C47.433 9.66 47.601 10.036 47.897 10.308C48.193 10.58 48.557 10.716 48.989 10.716C49.613 10.716 50.057 10.448 50.321 9.912H52.133C51.941 10.552 51.573 11.08 51.029 11.496C50.485 11.904 49.817 12.108 49.025 12.108C48.385 12.108 47.809 11.968 47.297 11.688C46.793 11.4 46.397 10.996 46.109 10.476C45.829 9.956 45.689 9.356 45.689 8.676C45.689 7.988 45.829 7.384 46.109 6.864C46.389 6.344 46.781 5.944 47.285 5.664C47.789 5.384 48.369 5.244 49.025 5.244C49.657 5.244 50.221 5.38 50.717 5.652C51.221 5.924 51.609 6.312 51.881 6.816C52.161 7.312 52.301 7.884 52.301 8.532ZM50.561 8.052C50.553 7.62 50.397 7.276 50.093 7.02C49.789 6.756 49.417 6.624 48.977 6.624C48.561 6.624 48.209 6.752 47.921 7.008C47.641 7.256 47.469 7.604 47.405 8.052H50.561ZM55.2072 6.384C55.4232 6.032 55.7032 5.756 56.0472 5.556C56.3992 5.356 56.7992 5.256 57.2472 5.256V7.02H56.8032C56.2752 7.02 55.8752 7.144 55.6032 7.392C55.3392 7.64 55.2072 8.072 55.2072 8.688V12H53.5272V5.352H55.2072V6.384ZM62.3148 12L60.0588 9.168V12H58.3788V3.12H60.0588V8.172L62.2908 5.352H64.4748L61.5468 8.688L64.4988 12H62.3148ZM67.0666 3.12V12H65.3866V3.12H67.0666ZM74.9064 8.532C74.9064 8.772 74.8904 8.988 74.8584 9.18H69.9984C70.0384 9.66 70.2064 10.036 70.5024 10.308C70.7984 10.58 71.1624 10.716 71.5944 10.716C72.2184 10.716 72.6624 10.448 72.9264 9.912H74.7384C74.5464 10.552 74.1784 11.08 73.6344 11.496C73.0904 11.904 72.4224 12.108 71.6304 12.108C70.9904 12.108 70.4144 11.968 69.9024 11.688C69.3984 11.4 69.0024 10.996 68.7144 10.476C68.4344 9.956 68.2944 9.356 68.2944 8.676C68.2944 7.988 68.4344 7.384 68.7144 6.864C68.9944 6.344 69.3864 5.944 69.8904 5.664C70.3944 5.384 70.9744 5.244 71.6304 5.244C72.2624 5.244 72.8264 5.38 73.3224 5.652C73.8264 5.924 74.2144 6.312 74.4864 6.816C74.7664 7.312 74.9064 7.884 74.9064 8.532ZM73.1664 8.052C73.1584 7.62 73.0024 7.276 72.6984 7.02C72.3944 6.756 72.0224 6.624 71.5824 6.624C71.1664 6.624 70.8144 6.752 70.5264 7.008C70.2464 7.256 70.0744 7.604 70.0104 8.052H73.1664Z" fill="white"/>
<path d="M39.648 26L37.8 22.736H37.008V26H35.328V17.624H38.472C39.12 17.624 39.672 17.74 40.128 17.972C40.584 18.196 40.924 18.504 41.148 18.896C41.38 19.28 41.496 19.712 41.496 20.192C41.496 20.744 41.336 21.244 41.016 21.692C40.696 22.132 40.22 22.436 39.588 22.604L41.592 26H39.648ZM37.008 21.476H38.412C38.868 21.476 39.208 21.368 39.432 21.152C39.656 20.928 39.768 20.62 39.768 20.228C39.768 19.844 39.656 19.548 39.432 19.34C39.208 19.124 38.868 19.016 38.412 19.016H37.008V21.476ZM45.9675 26.108C45.3275 26.108 44.7515 25.968 44.2395 25.688C43.7275 25.4 43.3235 24.996 43.0275 24.476C42.7395 23.956 42.5955 23.356 42.5955 22.676C42.5955 21.996 42.7435 21.396 43.0395 20.876C43.3435 20.356 43.7555 19.956 44.2755 19.676C44.7955 19.388 45.3755 19.244 46.0155 19.244C46.6555 19.244 47.2355 19.388 47.7555 19.676C48.2755 19.956 48.6835 20.356 48.9795 20.876C49.2835 21.396 49.4355 21.996 49.4355 22.676C49.4355 23.356 49.2795 23.956 48.9675 24.476C48.6635 24.996 48.2475 25.4 47.7195 25.688C47.1995 25.968 46.6155 26.108 45.9675 26.108ZM45.9675 24.644C46.2715 24.644 46.5555 24.572 46.8195 24.428C47.0915 24.276 47.3075 24.052 47.4675 23.756C47.6275 23.46 47.7075 23.1 47.7075 22.676C47.7075 22.044 47.5395 21.56 47.2035 21.224C46.8755 20.88 46.4715 20.708 45.9915 20.708C45.5115 20.708 45.1075 20.88 44.7795 21.224C44.4595 21.56 44.2995 22.044 44.2995 22.676C44.2995 23.308 44.4555 23.796 44.7675 24.14C45.0875 24.476 45.4875 24.644 45.9675 24.644ZM56.9438 19.352V26H55.2518V25.16C55.0358 25.448 54.7518 25.676 54.3998 25.844C54.0558 26.004 53.6798 26.084 53.2718 26.084C52.7518 26.084 52.2918 25.976 51.8918 25.76C51.4918 25.536 51.1758 25.212 50.9438 24.788C50.7198 24.356 50.6078 23.844 50.6078 23.252V19.352H52.2878V23.012C52.2878 23.54 52.4198 23.948 52.6838 24.236C52.9478 24.516 53.3078 24.656 53.7638 24.656C54.2278 24.656 54.5918 24.516 54.8558 24.236C55.1198 23.948 55.2518 23.54 55.2518 23.012V19.352H56.9438ZM60.5574 20.732V23.948C60.5574 24.172 60.6094 24.336 60.7134 24.44C60.8254 24.536 61.0094 24.584 61.2654 24.584H62.0454V26H60.9894C59.5734 26 58.8654 25.312 58.8654 23.936V20.732H58.0734V19.352H58.8654V17.708H60.5574V19.352H62.0454V20.732H60.5574ZM65.4258 17.48L65.2338 23.276H63.8178L63.6138 17.48H65.4258ZM64.5618 26.084C64.2578 26.084 64.0058 25.992 63.8058 25.808C63.6138 25.616 63.5178 25.38 63.5178 25.1C63.5178 24.82 63.6138 24.588 63.8058 24.404C64.0058 24.212 64.2578 24.116 64.5618 24.116C64.8578 24.116 65.1018 24.212 65.2938 24.404C65.4858 24.588 65.5818 24.82 65.5818 25.1C65.5818 25.38 65.4858 25.616 65.2938 25.808C65.1018 25.992 64.8578 26.084 64.5618 26.084ZM71.18 19.256C71.972 19.256 72.612 19.508 73.1 20.012C73.588 20.508 73.832 21.204 73.832 22.1V26H72.152V22.328C72.152 21.8 72.02 21.396 71.756 21.116C71.492 20.828 71.132 20.684 70.676 20.684C70.212 20.684 69.844 20.828 69.572 21.116C69.308 21.396 69.176 21.8 69.176 22.328V26H67.496V19.352H69.176V20.18C69.4 19.892 69.684 19.668 70.028 19.508C70.38 19.34 70.764 19.256 71.18 19.256ZM81.6096 22.532C81.6096 22.772 81.5936 22.988 81.5616 23.18H76.7016C76.7416 23.66 76.9096 24.036 77.2056 24.308C77.5016 24.58 77.8656 24.716 78.2976 24.716C78.9216 24.716 79.3656 24.448 79.6296 23.912H81.4416C81.2496 24.552 80.8816 25.08 80.3376 25.496C79.7936 25.904 79.1256 26.108 78.3336 26.108C77.6936 26.108 77.1176 25.968 76.6056 25.688C76.1016 25.4 75.7056 24.996 75.4176 24.476C75.1376 23.956 74.9976 23.356 74.9976 22.676C74.9976 21.988 75.1376 21.384 75.4176 20.864C75.6976 20.344 76.0896 19.944 76.5936 19.664C77.0976 19.384 77.6776 19.244 78.3336 19.244C78.9656 19.244 79.5296 19.38 80.0256 19.652C80.5296 19.924 80.9176 20.312 81.1896 20.816C81.4696 21.312 81.6096 21.884 81.6096 22.532ZM79.8696 22.052C79.8616 21.62 79.7056 21.276 79.4016 21.02C79.0976 20.756 78.7256 20.624 78.2856 20.624C77.8696 20.624 77.5176 20.752 77.2296 21.008C76.9496 21.256 76.7776 21.604 76.7136 22.052H79.8696Z" fill="url(#paint1_radial_288_824)"/>
<defs>
<radialGradient id="paint0_radial_288_824" cx="0" cy="0" r="1" gradientUnits="userSpaceOnUse" gradientTransform="translate(22.35 30) rotate(-128.046) scale(38.0943 39.2158)">
<stop stop-color="#6CFFCA"/>
<stop offset="0.3125" stop-color="#86D3FF"/>
<stop offset="0.604167" stop-color="#1DA0FF"/>
<stop offset="0.864583" stop-color="#1D68FF"/>
</radialGradient>
<radialGradient id="paint1_radial_288_824" cx="0" cy="0" r="1" gradientUnits="userSpaceOnUse" gradientTransform="translate(69.46 29) rotate(-143.299) scale(46.8508 47.6168)">
<stop stop-color="#6CFFCA"/>
<stop offset="0.3125" stop-color="#86D3FF"/>
<stop offset="0.604167" stop-color="#1DA0FF"/>
<stop offset="0.864583" stop-color="#1D68FF"/>
</radialGradient>
</defs>
</svg>
